<svg height="512pt" viewBox="-138 0 512 512.00051" width="512pt" xmlns="http://www.w3.org/2000/svg"><path d="m232.574219 156.648438c-.277344-.199219-.570313-.371094-.871094-.523438l-45.800781-27.542969v-60.609375c0-16.472656-5.550782-28.007812-14.28125-32.851562v-.015625l-53.078125-31.902344v.003906c-7.1875-4.601562-16.75-4.417969-27.25 1.640625-22.328125 12.894532-40.429688 47.476563-40.429688 77.246094v110.582031l-37.246093 21.503907c-11.179688 6.457031-17.578126 27.144531-10.898438 35.238281l77.675781 94.140625c.566407.683594 1.191407 1.21875 1.859375 1.632812v.003906l54.148438 32.535157v-.003907c5.785156 3.617188 15.089844-2.640624 19.972656-14.191406l77.675781-183.832031c4.402344-10.425781 3.117188-19.757813-1.476562-23.054687zm0 0" fill="#239d58"/><path d="m228.039062 360.511719.003907-.003907-.050781-.03125c-.429688-.285156-.867188-.558593-1.324219-.792968l-53.03125-31.882813c-4.925781-3.199219-11.503907-3.097656-18.726563 1.074219l-127.238281 73.460938c-15.28125 8.824218-27.671875 32.492187-27.671875 52.867187 0 11.296875 3.8125 19.203125 9.8125 22.507813h-.003906l53.316406 32.039062c.203125.132812.414062.253906.621094.375l.015625.007812c4.851562 2.796876 11.171875 2.542969 18.09375-1.453124l127.238281-73.460938c15.28125-8.824219 27.671875-32.492188 27.671875-52.867188 0-10.601562-3.359375-18.210937-8.726563-21.839843zm0 0" fill="#239d58"/><g fill="#a4c639"><path d="m56.902344 281.976562 77.675781 94.140626c5.433594 6.585937 16.359375.28125 21.792969-12.582032l77.675781-183.832031c6.679687-15.808594.28125-29.109375-10.898437-22.652344l-37.246094 21.503907v-110.582032c0-29.769531-18.101563-43.453125-40.429688-30.5625-22.324218 12.890625-40.425781 47.472656-40.425781 77.242188v110.585937l-37.246094 21.503907c-11.179687 6.453124-17.578125 27.140624-10.898437 35.234374zm0 0"/><path d="m54.183594 487.761719c0-20.375 12.386718-44.046875 27.671875-52.867188l127.238281-73.460937c15.28125-8.824219 27.671875.539062 27.671875 20.917968 0 20.375-12.390625 44.042969-27.671875 52.867188l-127.238281 73.460938c-15.285157 8.824218-27.671875-.542969-27.671875-20.917969zm0 0"/></g></svg>