<?xml version="1.0" encoding="iso-8859-1"?>
<!-- Generator: Adobe Illustrator 19.0.0, SVG Export Plug-In . SVG Version: 6.00 Build 0)  -->
<svg version="1.1" id="Capa_1" xmlns="http://www.w3.org/2000/svg" xmlns:xlink="http://www.w3.org/1999/xlink" x="0px" y="0px"
	 viewBox="0 0 512 512" style="enable-background:new 0 0 512 512;" xml:space="preserve">
<path style="fill:#90CAF9;" d="M256,256l169.6,169.6c-93.668,93.784-245.627,93.879-339.411,0.211S-7.69,180.184,85.978,86.4
	s245.627-93.879,339.411-0.211c0.07,0.07,0.141,0.141,0.211,0.211L256,256z"/>
<path style="fill:#FFC107;" d="M496,256c0.06,63.654-25.28,124.701-70.4,169.6L256,256L425.6,86.4
	C470.72,131.299,496.06,192.346,496,256z"/>
<circle style="fill:#2196F3;" cx="256" cy="256" r="64"/>
<path d="M256,512C114.615,512,0,397.385,0,256S114.615,0,256,0s256,114.615,256,256C511.841,397.319,397.319,511.841,256,512z
	 M256,32C132.288,32,32,132.288,32,256s100.288,224,224,224s224-100.288,224-224C479.859,132.347,379.653,32.141,256,32z"/>
<path d="M256,320c-35.346,0-64-28.654-64-64s28.654-64,64-64s64,28.654,64,64S291.346,320,256,320z M256,224
	c-17.673,0-32,14.327-32,32s14.327,32,32,32s32-14.327,32-32S273.673,224,256,224z"/>
<path d="M256,416c-88.366,0-160-71.634-160-160S167.634,96,256,96c42.505-0.221,83.301,16.716,113.152,46.976
	c6.607,5.868,7.206,15.981,1.338,22.588s-15.981,7.206-22.588,1.338c-0.534-0.475-1.036-0.984-1.502-1.526
	C322.521,141.265,289.934,127.792,256,128c-70.692,0-128,57.308-128,128s57.308,128,128,128c33.948,0.183,66.537-13.326,90.4-37.472
	c5.764-6.698,15.867-7.454,22.564-1.69c6.698,5.764,7.454,15.867,1.69,22.564c-0.466,0.542-0.968,1.051-1.502,1.526
	C339.317,399.223,298.519,416.195,256,416z"/>
<path d="M289.92,238.08c-8.837-0.002-15.998-7.167-15.997-16.003c0.001-4.249,1.692-8.324,4.701-11.325L414.272,75.104
	c6.139-6.356,16.268-6.532,22.624-0.393c6.356,6.139,6.532,16.268,0.393,22.624c-0.129,0.133-0.26,0.265-0.393,0.393
	L301.248,233.376C298.247,236.387,294.171,238.079,289.92,238.08z"/>
<path d="M425.6,441.6c-4.251-0.001-8.327-1.693-11.328-4.704L278.624,301.248c-6.139-6.356-5.963-16.485,0.394-22.624
	c6.2-5.988,16.03-5.988,22.23,0l135.648,135.648c6.256,6.24,6.269,16.371,0.029,22.627C433.924,439.908,429.849,441.599,425.6,441.6
	L425.6,441.6z"/>
<g>
</g>
<g>
</g>
<g>
</g>
<g>
</g>
<g>
</g>
<g>
</g>
<g>
</g>
<g>
</g>
<g>
</g>
<g>
</g>
<g>
</g>
<g>
</g>
<g>
</g>
<g>
</g>
<g>
</g>
</svg>
