<?xml version="1.0" standalone="no"?>
<!DOCTYPE svg PUBLIC "-//W3C//DTD SVG 20010904//EN"
 "http://www.w3.org/TR/2001/REC-SVG-20010904/DTD/svg10.dtd">
<svg version="1.0" xmlns="http://www.w3.org/2000/svg"
 width="224.000000pt" height="225.000000pt" viewBox="0 0 224.000000 225.000000"
 preserveAspectRatio="xMidYMid meet">
<metadata>
Created by potrace 1.15, written by Peter Selinger 2001-2017
</metadata>
<g transform="translate(0.000000,225.000000) scale(0.100000,-0.100000)"
fill="#000000" stroke="none">
<path d="M0 1125 l0 -1125 250 0 250 0 0 80 0 80 -170 0 -170 0 2 962 3 963
168 3 167 2 0 80 0 80 -250 0 -250 0 0 -1125z"/>
<path d="M1740 2170 l0 -80 175 0 175 0 0 -965 0 -965 -175 0 -175 0 0 -80 0
-80 250 0 250 0 0 1125 0 1125 -250 0 -250 0 0 -80z"/>
<path d="M846 1945 c-43 -29 -129 -70 -188 -89 -10 -3 -18 -13 -18 -22 0 -24
48 -13 143 34 l77 38 0 -313 0 -313 25 0 25 0 0 350 c0 193 -3 350 -7 349 -5
0 -30 -15 -57 -34z"/>
<path d="M1255 1946 c-63 -29 -87 -55 -121 -131 -24 -51 -28 -77 -32 -173 -5
-133 13 -218 60 -283 55 -76 175 -109 280 -77 56 17 121 78 147 138 57 133 42
372 -30 470 -58 77 -202 104 -304 56z m188 -27 c72 -37 112 -118 123 -247 13
-156 -31 -291 -111 -338 -83 -48 -199 -23 -250 54 -57 86 -69 286 -25 405 19
50 62 101 105 125 26 15 130 15 158 1z"/>
<path d="M835 878 c-25 -7 -58 -30 -91 -63 -72 -72 -89 -128 -89 -295 0 -123
1 -127 35 -195 50 -99 94 -129 200 -133 181 -9 272 92 287 318 10 163 -37 296
-123 346 -52 31 -152 41 -219 22z m159 -42 c43 -18 91 -77 107 -135 9 -28 14
-95 14 -171 0 -110 -3 -131 -24 -178 -44 -97 -129 -145 -219 -122 -65 16 -97
43 -129 108 -24 50 -28 71 -32 166 -4 129 9 196 50 260 47 76 149 107 233 72z"/>
<path d="M1470 849 c-35 -22 -91 -49 -122 -61 -42 -15 -58 -26 -58 -39 0 -17
2 -17 53 0 29 10 76 30 105 45 l52 26 0 -310 0 -310 30 0 30 0 0 345 c0 270
-3 345 -12 345 -7 -1 -42 -19 -78 -41z"/>
</g>
</svg>
