<?xml version="1.0"?>
<svg xmlns="http://www.w3.org/2000/svg" viewBox="0 0 64 64" width="512" height="512"><g id="flat"><rect x="35" y="15" width="24" height="32" style="fill:#5ac6aa"/><rect x="13" y="31" width="22" height="16" style="fill:#ffd782"/><rect x="13" y="25" width="6" height="6" style="fill:#f98c96"/><rect x="33" y="9" width="28" height="6" style="fill:#f98c96"/><rect x="10" y="21" width="12" height="4" style="fill:#ffd782"/><rect x="39" y="19" width="16" height="12" style="fill:#f4f4e6"/><rect x="13" y="31" width="6" height="16" style="fill:#5ac6aa"/><rect x="19" y="35" width="16" height="4" style="fill:#f98c96"/><circle cx="31" cy="51" r="4" style="fill:#6e7a88"/><circle cx="23" cy="51" r="4" style="fill:#6e7a88"/><circle cx="47" cy="47" r="8" style="fill:#6e7a88"/><polygon points="13 55 5 55 13 47 13 55" style="fill:#6e7a88"/><path d="M47,42a5.006,5.006,0,0,0-5,5,4.948,4.948,0,0,0,1.026,3H22v2H47a5,5,0,0,0,0-10Z" style="fill:#aabece"/><rect x="37.757" y="27" width="8.485" height="2" transform="translate(-7.497 37.899) rotate(-45)" style="fill:#ffd782"/><rect x="47.757" y="21" width="8.485" height="2" transform="translate(-0.326 43.213) rotate(-45)" style="fill:#ffd782"/><polygon points="13 31 3 39 13 47 13 31" style="fill:#dd3e46"/><rect x="54" y="34" width="2" height="2" style="fill:#fff"/><rect x="50" y="34" width="2" height="2" style="fill:#fff"/></g></svg>
