<?xml version="1.0" encoding="iso-8859-1"?>
<!-- Generator: Adobe Illustrator 19.0.0, SVG Export Plug-In . SVG Version: 6.00 Build 0)  -->
<svg version="1.1" id="Capa_1" xmlns="http://www.w3.org/2000/svg" xmlns:xlink="http://www.w3.org/1999/xlink" x="0px" y="0px"
	 viewBox="0 0 512.001 512.001" style="enable-background:new 0 0 512.001 512.001;" xml:space="preserve">
<polygon style="fill:#1990C2;" points="366.066,324.607 504.5,504.5 429.145,504.5 302.195,407.607 "/>
<path style="fill:#A8E5FF;" d="M487.5,312.5h-30v30h30c8.284,0,15-6.716,15-15S495.784,312.5,487.5,312.5z"/>
<circle style="fill:#DBF4FF;" cx="457.5" cy="327.5" r="15"/>
<path style="fill:#A8E5FF;" d="M489.5,252.5c0-16.569-13.432-30-30-30h-30l30,60h30c8.284,0,15-6.716,15-15
	S497.784,252.5,489.5,252.5z"/>
<path style="fill:#DBF4FF;" d="M459.5,252.5c0-16.569-13.431-30-30-30c-16.568,0-30,13.431-30,30h-30c-8.284,0-15,6.716-15,15
	s6.716,15,15,15h90c8.284,0,15-6.716,15-15S467.785,252.5,459.5,252.5z"/>
<path style="fill:#A8E5FF;" d="M52.5,192.5h-30v30h30c8.284,0,15-6.716,15-15S60.784,192.5,52.5,192.5z"/>
<circle style="fill:#DBF4FF;" cx="22.5" cy="207.5" r="15"/>
<path style="fill:#A8E5FF;" d="M181,252.5c0-16.569-13.432-30-30-30h-30l30,60h30c8.284,0,15-6.716,15-15S189.284,252.5,181,252.5z"
	/>
<path style="fill:#DBF4FF;" d="M151,252.5c0-16.569-13.432-30-30-30s-30,13.431-30,30H22.5c-8.284,0-15,6.716-15,15s6.716,15,15,15
	H151c8.284,0,15-6.716,15-15S159.284,252.5,151,252.5z"/>
<polygon style="fill:#FF6337;" points="286,177.5 256,177.5 238,132.5 256,87.5 286,87.5 "/>
<rect x="226" y="87.5" style="fill:#FF8646;" width="30" height="90"/>
<path style="fill:#FFB4A9;" d="M256,7.5l-15,25l15,25c13.807,0,25-11.193,25-25S269.807,7.5,256,7.5z"/>
<path style="fill:#FFD9D4;" d="M231,32.5c0,13.807,11.193,25,25,25v-50C242.193,7.5,231,18.693,231,32.5z"/>
<polygon style="fill:#1990C2;" points="145.934,324.607 7.5,504.5 82.856,504.5 209.805,407.607 "/>
<polygon style="fill:#869E47;" points="362.389,417.752 256,354.5 353.831,504.5 429.145,504.5 "/>
<polygon style="fill:#9DB55F;" points="326.964,442.708 256,354.5 149.611,417.752 82.856,504.5 353.831,504.5 "/>
<polygon style="fill:#DBF4FF;" points="256,279.5 256,354.5 326.964,442.708 362.389,417.752 "/>
<polygon style="fill:#FFFFFF;" points="256,279.5 149.611,417.752 185.03,442.708 220.512,417.708 255.993,442.708 291.476,417.708 
	326.964,442.708 "/>
<path d="M487.5,305h-30c-12.406,0-22.5,10.093-22.5,22.5s10.094,22.5,22.5,22.5h30c12.406,0,22.5-10.093,22.5-22.5
	S499.906,305,487.5,305z M487.5,335h-30c-4.136,0-7.5-3.364-7.5-7.5s3.364-7.5,7.5-7.5h30c4.136,0,7.5,3.364,7.5,7.5
	S491.636,335,487.5,335z"/>
<path d="M369.5,290h120c12.406,0,22.5-10.093,22.5-22.5c0-9.981-6.532-18.465-15.547-21.401C493.407,228.461,477.995,215,459.5,215
	h-30c-18.109,0-33.262,12.905-36.747,30H369.5c-12.406,0-22.5,10.093-22.5,22.5C347,279.907,357.094,290,369.5,290z M369.5,260h30
	c4.143,0,7.5-3.358,7.5-7.5c0-12.407,10.094-22.5,22.5-22.5h30c12.406,0,22.5,10.093,22.5,22.5c0,4.142,3.357,7.5,7.5,7.5
	c4.136,0,7.5,3.364,7.5,7.5s-3.364,7.5-7.5,7.5h-120c-4.136,0-7.5-3.364-7.5-7.5S365.364,260,369.5,260z"/>
<path d="M22.5,230h30c12.406,0,22.5-10.093,22.5-22.5S64.906,185,52.5,185h-30C10.094,185,0,195.093,0,207.5S10.094,230,22.5,230z
	 M22.5,200h30c4.136,0,7.5,3.364,7.5,7.5s-3.364,7.5-7.5,7.5h-30c-4.136,0-7.5-3.364-7.5-7.5S18.364,200,22.5,200z"/>
<path d="M22.5,290H181c12.406,0,22.5-10.093,22.5-22.5c0-9.981-6.532-18.465-15.547-21.401C184.907,228.461,169.495,215,151,215h-30
	c-18.109,0-33.262,12.905-36.747,30H22.5C10.094,245,0,255.093,0,267.5C0,279.907,10.094,290,22.5,290z M22.5,260H91
	c4.143,0,7.5-3.358,7.5-7.5c0-12.407,10.094-22.5,22.5-22.5h30c12.406,0,22.5,10.093,22.5,22.5c0,4.142,3.357,7.5,7.5,7.5
	c4.136,0,7.5,3.364,7.5,7.5s-3.364,7.5-7.5,7.5H22.5c-4.136,0-7.5-3.364-7.5-7.5S18.364,260,22.5,260z"/>
<path d="M256,65c17.921,0,32.5-14.58,32.5-32.5S273.921,0,256,0s-32.5,14.58-32.5,32.5S238.079,65,256,65z M256,15
	c9.649,0,17.5,7.851,17.5,17.5S265.65,50,256,50s-17.5-7.851-17.5-17.5S246.351,15,256,15z"/>
<path d="M218.5,94.534V267.5c0,4.142,3.357,7.5,7.5,7.5s7.5-3.358,7.5-7.5V185h45v82.5c0,4.142,3.357,7.5,7.5,7.5s7.5-3.358,7.5-7.5
	V94.534c30.937-3.719,55-30.111,55-62.034c0-4.142-3.357-7.5-7.5-7.5s-7.5,3.358-7.5,7.5c0,26.191-21.309,47.5-47.5,47.5h-60
	c-26.191,0-47.5-21.309-47.5-47.5c0-4.142-3.357-7.5-7.5-7.5s-7.5,3.358-7.5,7.5C163.5,64.423,187.563,90.815,218.5,94.534z
	 M233.5,170V95h45v75H233.5z"/>
<path d="M372.01,320.033c-1.419-1.845-3.615-2.926-5.943-2.926s-4.524,1.081-5.944,2.926l-18.75,24.366
	c-2.525,3.283-1.912,7.992,1.37,10.518c3.284,2.526,7.992,1.912,10.518-1.37l12.807-16.642L489.265,497h-56.429l-63.845-82.966
	c-0.124-0.219-0.259-0.435-0.407-0.645c-0.265-0.377-0.563-0.716-0.88-1.028l-105.76-137.435C260.525,273.081,258.328,272,256,272
	s-4.524,1.081-5.943,2.926l-105.76,137.435c-0.317,0.312-0.614,0.651-0.879,1.028c-0.147,0.209-0.282,0.424-0.405,0.642L79.164,497
	H22.735l123.198-160.095l12.81,16.645c2.524,3.282,7.233,3.897,10.518,1.37c3.282-2.526,3.896-7.235,1.369-10.518l-18.753-24.369
	c-1.419-1.845-3.615-2.926-5.943-2.926s-4.524,1.081-5.943,2.926L1.557,499.926c-1.743,2.264-2.048,5.323-0.785,7.886
	C2.033,510.376,4.643,512,7.5,512h421.642c0.015,0,75.358,0,75.358,0c2.857,0,5.467-1.624,6.729-4.187
	c1.263-2.563,0.958-5.622-0.785-7.886L372.01,320.033z M256,291.798l95.675,124.328l-24.711,17.408l-31.169-21.957
	c-2.59-1.825-6.049-1.825-8.639,0l-31.163,21.956l-31.161-21.956c-2.591-1.826-6.049-1.826-8.64,0l-31.163,21.956l-24.705-17.407
	L256,291.798z M151.169,428.025l29.541,20.814c2.591,1.825,6.049,1.826,8.64,0l31.163-21.956l31.161,21.956
	c2.59,1.825,6.048,1.826,8.64,0l31.163-21.957l31.169,21.957c1.295,0.913,2.808,1.369,4.319,1.369s3.024-0.456,4.319-1.369
	l29.548-20.815L413.91,497H98.09L151.169,428.025z"/>
<g>
</g>
<g>
</g>
<g>
</g>
<g>
</g>
<g>
</g>
<g>
</g>
<g>
</g>
<g>
</g>
<g>
</g>
<g>
</g>
<g>
</g>
<g>
</g>
<g>
</g>
<g>
</g>
<g>
</g>
</svg>
